<svg width="24" height="24" viewBox="0 0 24 24" fill="none" xmlns="http://www.w3.org/2000/svg">
<path d="M0 17.6175C0.178964 17.1926 0.257457 16.7394 0.376767 16.3018C0.653062 15.2883 0.916799 14.2716 1.19623 13.2581C1.26845 13 1.24647 12.7702 1.13344 12.5247C-0.323391 9.29211 0.439561 5.52127 3.06123 3.13538C4.84773 1.51436 6.96704 0.806152 9.36893 1.04537C12.9984 1.40735 15.909 4.11429 16.5589 7.69312C17.3627 12.1375 14.4082 16.4089 9.96862 17.1895C8.31084 17.4822 6.70017 17.2839 5.16484 16.5757C4.93564 16.4687 4.72214 16.4498 4.48038 16.5159C3.04239 16.9093 1.59812 17.2965 0.156986 17.6805C0.106751 17.6931 0.0533753 17.6962 0 17.7057C0 17.6742 0 17.6427 0 17.6144L0 17.6175Z" fill="#A6A6A6"/>
<path d="M17.2401 5.24744C18.81 5.64718 20.1632 6.36484 21.2652 7.51057C22.9481 9.25749 23.7142 11.3601 23.5855 13.7775C23.5352 14.7438 23.3029 15.6755 22.8916 16.5537C22.7597 16.8401 22.7472 17.0982 22.8288 17.3972C23.2275 18.8483 23.6106 20.3025 23.9999 21.7629C23.9026 21.807 23.8178 21.7472 23.7362 21.7252C22.317 21.3475 20.8947 20.9697 19.4787 20.5826C19.2652 20.5259 19.08 20.5511 18.879 20.6361C15.8084 21.9392 12.945 21.5772 10.2982 19.5407C9.98734 19.3015 9.71418 19.0182 9.43788 18.7444C9.40021 18.7066 9.36567 18.6688 9.29346 18.5933C12.5902 18.3383 15.1836 16.9093 16.8696 14.0702C18.5556 11.2342 18.5745 8.27544 17.237 5.24744H17.2401Z" fill="#A6A6A6"/>
</svg>
