<svg width="24" height="24" viewBox="0 0 24 24" fill="none" xmlns="http://www.w3.org/2000/svg">
<path d="M11.7852 13.5704C15.3365 13.5704 18.2154 10.6915 18.2154 7.14023C18.2154 3.58894 15.3365 0.710052 11.7852 0.710052C8.23391 0.710052 5.35502 3.58894 5.35502 7.14023C5.35502 10.6915 8.23391 13.5704 11.7852 13.5704Z" fill="#A6A6A6"/>
<path d="M11.8339 14.8136C13.7794 14.8136 15.5362 14.1558 16.7869 13.0988C20.2702 14.2551 22.743 16.3146 22.743 19.7361V21.5432C22.743 22.5065 21.8407 23.2877 20.7272 23.2877H2.94063C1.82749 23.2877 0.924805 22.5065 0.924805 21.5432V19.7004C0.924805 16.2886 3.39493 14.2384 6.8715 13.0906C8.12293 14.1525 9.88832 14.8136 11.8339 14.8136Z" fill="#A6A6A6"/>
</svg>
